<svg xmlns="http://www.w3.org/2000/svg" xmlns:xlink="http://www.w3.org/1999/xlink" width="1920" height="1312">
  <defs>
    <path id="a"
      d="M0 3023.009s233.832-201.773 527.156 51.3c81.192 50.564 120.177 63.622 248.19 5.514 53.12-16.515 143.596-56.296 353.423-5.515 34.432 7.721 229.5 80.4 284.923 81.34 34.906 3.696 112.517-21.013 234.291-129.875 26.47-24.304 142.963-105.29 272.017 0V1844H0z" />
    <path id="b"
      d="M0 3009.634s233.832-199.306 527.156 50.672c81.192 49.946 120.177 62.845 248.19 5.447 53.12-16.313 143.596-55.607 353.423-5.447 34.432 7.627 229.5 79.417 284.923 80.345 34.906 3.65 112.517-21.8 234.291-129.331 26.47-24.007 142.963-104.004 272.017 0V1843.996H0z" />
    <linearGradient id="c" x1="960" x2="960" y1="3140.98" y2="1844" gradientUnits="userSpaceOnUse">
      <stop offset="0" stop-color="#4085f6" />
      <stop offset="1" stop-color="#1760d7" />
    </linearGradient>
  </defs>
  <use fill="#226be2" xlink:href="#a" transform="translate(0 -1844)" />
  <g transform="translate(0 -1844)">
    <use fill="#226be2" xlink:href="#b" />
    <use fill="url(#c)" xlink:href="#b" />
  </g>
</svg>
